<?xml version="1.0" encoding="UTF-8"?>
<!DOCTYPE svg PUBLIC "-//W3C//DTD SVG 1.1//EN" "http://www.w3.org/Graphics/SVG/1.1/DTD/svg11.dtd">
<svg xmlns="http://www.w3.org/2000/svg" version="1.1" width="512px" height="512px" style="shape-rendering:geometricPrecision; text-rendering:geometricPrecision; image-rendering:optimizeQuality; fill-rule:evenodd; clip-rule:evenodd" xmlns:xlink="http://www.w3.org/1999/xlink">
<g><path style="opacity:0.974" fill="#010101" d="M 511.5,224.5 C 511.5,235.833 511.5,247.167 511.5,258.5C 507.572,287.359 496.739,313.359 479,336.5C 467.424,348.693 453.257,353.526 436.5,351C 418.162,348.554 400.995,342.721 385,333.5C 383.517,330.298 383.183,326.964 384,323.5C 384.377,322.058 385.21,321.058 386.5,320.5C 388.782,319.61 391.115,319.444 393.5,320C 409.488,328.496 426.488,333.663 444.5,335.5C 457.492,334.75 466.659,328.417 472,316.5C 475.035,298.331 472.368,280.997 464,264.5C 427.484,190.647 373.651,132.814 302.5,91C 285.574,81.2021 267.574,74.2021 248.5,70C 228.688,66.4829 215.188,73.9829 208,92.5C 206.553,106.042 208.553,119.042 214,131.5C 218.886,142.939 224.552,153.939 231,164.5C 231.46,167.962 230.96,171.296 229.5,174.5C 226.221,175.492 222.888,175.659 219.5,175C 205.916,156.989 196.75,136.822 192,114.5C 187.192,86.6155 197.358,66.4488 222.5,54C 283.448,21.5508 342.615,24.3841 400,62.5C 404.833,57.6667 409.667,52.8333 414.5,48C 416.588,46.9704 418.755,46.1371 421,45.5C 426.882,46.6907 432.382,48.8574 437.5,52C 458,67.1667 475.833,85 491,105.5C 494.834,111.333 496.834,117.666 497,124.5C 496.333,125.833 495.667,127.167 495,128.5C 489.985,133.348 485.152,138.348 480.5,143.5C 497.351,168.062 507.685,195.062 511.5,224.5 Z"/></g>
<g><path style="opacity:1" fill="#7f8083" d="M 291.5,47.5 C 321.402,45.8573 349.402,52.3573 375.5,67C 419.099,92.5993 453.266,127.433 478,171.5C 494.806,203.143 499.473,236.476 492,271.5C 490.632,276.324 488.965,280.991 487,285.5C 480.48,260.462 470.147,237.129 456,215.5C 421.833,164 379,121.167 327.5,87C 306.111,73.1398 283.111,62.8065 258.5,56C 269.356,52.0696 280.356,49.2362 291.5,47.5 Z"/></g>
<g><path style="opacity:1" fill="#565759" d="M 422.5,63.5 C 429.868,67.3559 436.868,71.8559 443.5,77C 457.94,89.2596 469.94,103.426 479.5,119.5C 476.516,122.985 473.349,126.318 470,129.5C 453.167,108.667 434.333,89.8333 413.5,73C 416.704,69.9641 419.704,66.7974 422.5,63.5 Z"/></g>
<g><path style="opacity:1" fill="#ee4035" d="M 386.5,320.5 C 385.035,319.263 383.368,318.263 381.5,317.5C 380.876,317.083 380.543,316.416 380.5,315.5C 386.976,292.691 382.809,272.024 368,253.5C 350.545,234.006 329.378,219.839 304.5,211C 284.297,203.616 263.63,198.116 242.5,194.5C 238.167,187.833 233.833,181.167 229.5,174.5C 230.96,171.296 231.46,167.962 231,164.5C 224.552,153.939 218.886,142.939 214,131.5C 208.553,119.042 206.553,106.042 208,92.5C 215.188,73.9829 228.688,66.4829 248.5,70C 267.574,74.2021 285.574,81.2021 302.5,91C 373.651,132.814 427.484,190.647 464,264.5C 472.368,280.997 475.035,298.331 472,316.5C 466.659,328.417 457.492,334.75 444.5,335.5C 426.488,333.663 409.488,328.496 393.5,320C 391.115,319.444 388.782,319.61 386.5,320.5 Z"/></g>
<g><path style="opacity:0.985" fill="#020101" d="M 242.5,194.5 C 263.63,198.116 284.297,203.616 304.5,211C 329.378,219.839 350.545,234.006 368,253.5C 382.809,272.024 386.976,292.691 380.5,315.5C 380.543,316.416 380.876,317.083 381.5,317.5C 373.504,359.154 355.671,395.821 328,427.5C 320.584,434.92 312.584,441.587 304,447.5C 303.962,460.262 303.295,472.928 302,485.5C 284.474,497.901 264.974,505.401 243.5,508C 235.01,509.101 226.677,510.267 218.5,511.5C 200.5,511.5 182.5,511.5 164.5,511.5C 146.297,509.76 128.297,506.26 110.5,501C 99.8611,497.265 90.0278,492.098 81,485.5C 79.7048,472.928 79.0381,460.262 79,447.5C 47.1391,423.943 24.8058,393.277 12,355.5C 6.7053,339.319 2.53864,322.985 -0.5,306.5C -0.5,299.167 -0.5,291.833 -0.5,284.5C 3.1212,268.764 10.7879,255.264 22.5,244C 48.1854,221.658 77.8521,206.991 111.5,200C 154.85,190.864 198.516,189.03 242.5,194.5 Z"/></g>
<g><path style="opacity:1" fill="#eb4035" d="M 167.5,207.5 C 214.346,204.74 259.679,211.573 303.5,228C 319.471,234.98 334.137,243.98 347.5,255C 357.202,263.902 363.702,274.736 367,287.5C 368.173,295.096 367.34,302.429 364.5,309.5C 325.015,268.429 276.682,245.596 219.5,241C 174.632,236.484 131.299,242.484 89.5,259C 62.351,270.91 38.6843,287.744 18.5,309.5C 14.2582,298.019 14.7582,286.685 20,275.5C 26.6465,263.711 35.4798,253.877 46.5,246C 71.8887,229.531 99.5553,218.531 129.5,213C 142.325,211.224 154.991,209.391 167.5,207.5 Z"/></g>
<g><path style="opacity:1" fill="#fccf40" d="M 169.5,255.5 C 217.416,252.316 262.749,261.483 305.5,283C 324.836,294.339 341.836,308.505 356.5,325.5C 345.001,339.491 331.001,350.325 314.5,358C 253.228,383.977 189.895,390.31 124.5,377C 97.6613,371.5 72.6613,361.5 49.5,347C 41.1824,340.681 33.5158,333.681 26.5,326C 52.2026,295.36 84.536,274.693 123.5,264C 138.754,259.993 154.088,257.16 169.5,255.5 Z"/></g>
<g><path style="opacity:1" fill="#060502" d="M 180.5,263.5 C 183.271,263.421 185.937,263.921 188.5,265C 201.167,270 213.833,275 226.5,280C 231.568,282.983 232.735,287.149 230,292.5C 221.5,301 213,309.5 204.5,318C 201.923,319.25 199.257,319.584 196.5,319C 184.431,313.216 172.597,307.049 161,300.5C 159.121,297.134 159.121,293.8 161,290.5C 167.044,281.041 173.544,272.041 180.5,263.5 Z"/></g>
<g><path style="opacity:1" fill="#000000" d="M 143.5,279.5 C 143.5,284.833 143.5,290.167 143.5,295.5C 138.167,295.5 132.833,295.5 127.5,295.5C 127.5,290.167 127.5,284.833 127.5,279.5C 132.833,279.5 138.167,279.5 143.5,279.5 Z"/></g>
<g><path style="opacity:1" fill="#1ec950" d="M 143.5,279.5 C 146.167,279.5 148.833,279.5 151.5,279.5C 151.5,284.833 151.5,290.167 151.5,295.5C 148.833,295.5 146.167,295.5 143.5,295.5C 143.5,290.167 143.5,284.833 143.5,279.5 Z"/></g>
<g><path style="opacity:1" fill="#eceded" d="M 186.5,281.5 C 193.98,284.105 201.313,287.105 208.5,290.5C 205.167,294.5 201.5,298.167 197.5,301.5C 191.342,298.588 185.342,295.421 179.5,292C 181.72,288.385 184.053,284.885 186.5,281.5 Z"/></g>
<g><path style="opacity:1" fill="#000000" d="M 271.5,287.5 C 271.5,292.833 271.5,298.167 271.5,303.5C 266.167,303.5 260.833,303.5 255.5,303.5C 255.5,298.167 255.5,292.833 255.5,287.5C 260.833,287.5 266.167,287.5 271.5,287.5 Z"/></g>
<g><path style="opacity:1" fill="#1ec950" d="M 271.5,287.5 C 274.167,287.5 276.833,287.5 279.5,287.5C 279.5,292.833 279.5,298.167 279.5,303.5C 276.833,303.5 274.167,303.5 271.5,303.5C 271.5,298.167 271.5,292.833 271.5,287.5 Z"/></g>
<g><path style="opacity:1" fill="#060503" d="M 100.5,295.5 C 103.271,295.421 105.937,295.921 108.5,297C 124.5,305 140.5,313 156.5,321C 159.848,324.419 160.348,328.252 158,332.5C 149.5,343.667 141,354.833 132.5,366C 129.923,367.25 127.257,367.584 124.5,367C 107.098,358.55 89.9317,349.716 73,340.5C 71.1211,337.134 71.1211,333.8 73,330.5C 82.061,318.623 91.2277,306.956 100.5,295.5 Z"/></g>
<g><path style="opacity:1" fill="#000000" d="M 63.5,311.5 C 63.5,316.833 63.5,322.167 63.5,327.5C 58.1667,327.5 52.8333,327.5 47.5,327.5C 47.5,322.167 47.5,316.833 47.5,311.5C 52.8333,311.5 58.1667,311.5 63.5,311.5 Z"/></g>
<g><path style="opacity:1" fill="#1ec950" d="M 63.5,311.5 C 66.1667,311.5 68.8333,311.5 71.5,311.5C 71.5,316.833 71.5,322.167 71.5,327.5C 68.8333,327.5 66.1667,327.5 63.5,327.5C 63.5,322.167 63.5,316.833 63.5,311.5 Z"/></g>
<g><path style="opacity:1" fill="#040301" d="M 283.5,311.5 C 288.509,310.771 292.342,312.437 295,316.5C 295.944,329.903 295.611,343.236 294,356.5C 292.829,357.893 291.329,358.727 289.5,359C 275.333,361.833 261.167,364.667 247,367.5C 244.968,367.142 243.134,366.308 241.5,365C 236,356.833 230.5,348.667 225,340.5C 221.939,333.456 224.106,328.956 231.5,327C 249.142,322.28 266.475,317.114 283.5,311.5 Z"/></g>
<g><path style="opacity:1" fill="#edeeee" d="M 105.5,313.5 C 116.818,318.824 127.818,324.658 138.5,331C 134.372,337.415 129.872,343.582 125,349.5C 113.9,344.035 103.066,338.202 92.5,332C 96.7143,325.734 101.048,319.567 105.5,313.5 Z"/></g>
<g><path style="opacity:1" fill="#000000" d="M 327.5,319.5 C 327.5,324.833 327.5,330.167 327.5,335.5C 322.167,335.5 316.833,335.5 311.5,335.5C 311.5,330.167 311.5,324.833 311.5,319.5C 316.833,319.5 322.167,319.5 327.5,319.5 Z"/></g>
<g><path style="opacity:1" fill="#1ec950" d="M 327.5,319.5 C 330.167,319.5 332.833,319.5 335.5,319.5C 335.5,324.833 335.5,330.167 335.5,335.5C 332.833,335.5 330.167,335.5 327.5,335.5C 327.5,330.167 327.5,324.833 327.5,319.5 Z"/></g>
<g><path style="opacity:1" fill="#000000" d="M 191.5,327.5 C 191.5,332.833 191.5,338.167 191.5,343.5C 186.167,343.5 180.833,343.5 175.5,343.5C 175.5,338.167 175.5,332.833 175.5,327.5C 180.833,327.5 186.167,327.5 191.5,327.5 Z"/></g>
<g><path style="opacity:1" fill="#1ec950" d="M 191.5,327.5 C 194.167,327.5 196.833,327.5 199.5,327.5C 199.5,332.833 199.5,338.167 199.5,343.5C 196.833,343.5 194.167,343.5 191.5,343.5C 191.5,338.167 191.5,332.833 191.5,327.5 Z"/></g>
<g><path style="opacity:1" fill="#e9eaea" d="M 275.5,330.5 C 276.833,330.5 278.167,330.5 279.5,330.5C 279.5,335.5 279.5,340.5 279.5,345.5C 270.283,346.843 261.116,348.51 252,350.5C 249.266,347.376 246.766,344.043 244.5,340.5C 254.921,337.136 265.254,333.803 275.5,330.5 Z"/></g>
<g><path style="opacity:1" fill="#7f8184" d="M 27.5,350.5 C 47.4607,366.484 69.794,378.318 94.5,386C 159.922,404.169 225.255,403.836 290.5,385C 314.567,377.308 336.233,366.141 355.5,351.5C 326.264,427.243 270.764,464.576 189,463.5C 109.029,462.64 55.1956,424.973 27.5,350.5 Z"/></g>
<g><path style="opacity:1" fill="#1ec950" d="M 215.5,351.5 C 218.167,351.5 220.833,351.5 223.5,351.5C 223.5,356.833 223.5,362.167 223.5,367.5C 220.833,367.5 218.167,367.5 215.5,367.5C 215.5,362.167 215.5,356.833 215.5,351.5 Z"/></g>
<g><path style="opacity:1" fill="#000000" d="M 215.5,351.5 C 215.5,356.833 215.5,362.167 215.5,367.5C 210.167,367.5 204.833,367.5 199.5,367.5C 199.5,362.167 199.5,356.833 199.5,351.5C 204.833,351.5 210.167,351.5 215.5,351.5 Z"/></g>
<g><path style="opacity:1" fill="#565759" d="M 95.5,457.5 C 142.469,479.995 191.469,485.495 242.5,474C 258.022,470.271 272.856,464.771 287,457.5C 287.667,463.5 287.667,469.5 287,475.5C 278.12,481.018 268.62,485.185 258.5,488C 213.818,497.825 169.151,497.825 124.5,488C 114.214,485.573 104.714,481.407 96,475.5C 95.5005,469.509 95.3338,463.509 95.5,457.5 Z"/></g>
</svg>
